<?xml version="1.0" encoding="UTF-8"?>
<svg width="28px" height="28px" viewBox="0 0 28 28" version="1.1" xmlns="http://www.w3.org/2000/svg" xmlns:xlink="http://www.w3.org/1999/xlink">
    <title>Close</title>
    <g id="Page-1" stroke="none" stroke-width="1" fill="none" fill-rule="evenodd">
        <g id="Screen-/-Filter-open" transform="translate(-260, -256)" fill="#828282" fill-rule="nonzero">
            <g id="Filters" transform="translate(15, 241)">
                <path d="M259,15 C266.732308,15 273,21.2676923 273,29 C273,36.7323077 266.732308,43 259,43 C251.267692,43 245,36.7323077 245,29 C245,21.2676923 251.267692,15 259,15 Z M261.898291,24.3155529 L259,27.2138439 L256.101709,24.3155529 C255.786654,23.9774417 255.312168,23.838263 254.864393,23.9526168 C254.416619,24.0669707 254.066971,24.4166185 253.952617,24.8643933 C253.838263,25.3121681 253.977442,25.7866536 254.315553,26.101709 L257.213844,29 L254.315553,31.898291 C253.977442,32.2133464 253.838263,32.6878319 253.952617,33.1356067 C254.066971,33.5833815 254.416619,33.9330293 254.864393,34.0473832 C255.312168,34.161737 255.786654,34.0225583 256.101709,33.6844471 L259,30.7861561 L261.898291,33.6844471 C262.213346,34.0225583 262.687832,34.161737 263.135607,34.0473832 C263.583381,33.9330293 263.933029,33.5833815 264.047383,33.1356067 C264.161737,32.6878319 264.022558,32.2133464 263.684447,31.898291 L260.786156,29 L263.684447,26.101709 C264.022558,25.7866536 264.161737,25.3121681 264.047383,24.8643933 C263.933029,24.4166185 263.583381,24.0669707 263.135607,23.9526168 C262.687832,23.838263 262.213346,23.9774417 261.898291,24.3155529 Z" id="Close"></path>
            </g>
        </g>
    </g>
</svg>