<?xml version="1.0" encoding="UTF-8"?>
<svg width="19px" height="19px" viewBox="0 0 19 19" version="1.1" xmlns="http://www.w3.org/2000/svg"
    xmlns:xlink="http://www.w3.org/1999/xlink">
    <title>Combined Shape</title>
    <g id="Page-1" stroke="none" stroke-width="1" fill="none" fill-rule="evenodd">
        <g id="Screen-/-Normal" transform="translate(-341, -673)" fill="#EEE" fill-rule="nonzero">
            <g id="Menu" transform="translate(323, 528.9)">
                <g id="Setting" transform="translate(0, 126.1)">
                    <path
                        d="M34.1416642,28.2895891 L36.0121594,29.3932192 C36.3110167,29.568185 36.500879,29.9495206 36.500879,30.371233 C36.500879,30.7929453 36.3110167,31.1742809 36.0121594,31.3492467 L28.3262526,35.8804112 C27.8023733,36.189966 27.1976267,36.189966 26.6737474,35.8804112 L18.9878406,31.3492467 C18.6889833,31.1697946 18.499121,30.788459 18.499121,30.371233 C18.499121,29.9540069 18.6889833,29.568185 18.9878406,29.3932192 L20.8583358,28.2895891 L26.2026077,31.4389727 C27.0253443,31.9234933 27.9746557,31.9234933 28.7973923,31.4389727 L34.1416642,28.2895891 Z M28.3262526,19.1195888 L36.0121594,23.6507533 C36.3110167,23.8257191 36.500879,24.2070547 36.500879,24.628767 C36.500879,25.0504794 36.3110167,25.431815 36.0121594,25.6067808 L28.3262526,30.1379453 C27.8023733,30.4475001 27.1976267,30.4475001 26.6737474,30.1379453 L18.9878406,25.6067808 C18.6889833,25.4273287 18.499121,25.0459931 18.499121,24.628767 C18.499121,24.211541 18.6889833,23.8257191 18.9878406,23.6507533 L26.6737474,19.1195888 C27.1976267,18.810034 27.8023733,18.810034 28.3262526,19.1195888 Z"
                        id="Combined-Shape"></path>
                </g>
            </g>
        </g>
    </g>
</svg>