<?xml version="1.0" encoding="UTF-8"?>
<svg width="16px" height="13px" viewBox="0 0 16 13" version="1.1" xmlns="http://www.w3.org/2000/svg" xmlns:xlink="http://www.w3.org/1999/xlink">
    <title>Shape</title>
    <g id="Page-1" stroke="none" stroke-width="1" fill="none" fill-rule="evenodd">
        <g id="Screen-/-Hotspot-Open" transform="translate(-109, -514)" fill="#EEEEEE" fill-rule="nonzero">
            <g id="Filters" transform="translate(15, 270)">
                <g id="Post" transform="translate(20, 66.5)">
                    <g id="Rating" transform="translate(0, 140)">
                        <g id="Group" transform="translate(0, 24)">
                            <path d="M78.7449423,25.4166667 C78.4379978,25.4166667 78.1527201,25.2462222 78.0407756,24.9602222 C77.7928658,24.3291962 77.6659525,23.6571436 77.6666615,22.9791667 C77.6666615,21.7152778 78.0992756,20.5539444 78.8236645,19.6323889 C78.9327201,19.4937222 79.0930534,19.4092222 79.2569978,19.3456667 C79.5986089,19.2135 79.8997756,18.9744444 80.1323312,18.6783333 C80.6929762,17.9630718 81.3967423,17.3727053 82.1986089,16.945 C82.7207756,16.6676667 83.1736089,16.2545556 83.3924423,15.7063889 C83.5461356,15.3223477 83.6250681,14.9124869 83.6249978,14.4988333 L83.6249978,14.0416667 C83.6249978,13.7425124 83.8675103,13.5 84.1666615,13.5 C85.0641272,13.5 85.7916645,14.2275373 85.7916645,15.125 C85.7916645,15.957 85.6038867,16.7449444 85.2694978,17.4491111 C85.0773867,17.8521111 85.3467756,18.375 85.7931089,18.375 L88.0507756,18.375 C88.7917756,18.375 89.4554978,18.8762222 89.5342201,19.6136111 C89.5667201,19.9183889 89.583341,20.2275 89.583341,20.5416667 C89.5863174,22.5179177 88.9109775,24.4353323 87.6701645,25.9735 C87.3899423,26.3216111 86.9573312,26.5 86.5109978,26.5 L83.6105534,26.5 C83.2617201,26.5 82.9143312,26.4436667 82.5828312,26.3338889 L80.3338312,25.5827778 C80.0024056,25.4725552 79.6553823,25.4164657 79.3061089,25.4166667 L78.7449423,25.4166667 Z M75.0168312,19.8028333 C74.6188287,20.8144538 74.4152137,21.8920697 74.4166568,22.9791667 C74.4157524,23.8373822 74.5423185,24.6909738 74.7922201,25.512 C74.9799978,26.1258889 75.5758312,26.5 76.2178867,26.5 L76.8722201,26.5 C77.1936089,26.5 77.3922201,26.1403333 77.2499423,25.8514444 C76.8094873,24.9581085 76.5811182,23.9751825 76.5826089,22.9791667 C76.5826089,21.7456111 76.9263867,20.5922222 77.5229423,19.6092778 C77.6998867,19.3182222 77.5027201,18.9166667 77.1618312,18.9166667 L76.4027756,18.9166667 C75.8018867,18.9166667 75.2385534,19.2438333 75.0175534,19.8028333 L75.0168312,19.8028333 Z" id="Shape"></path>
                        </g>
                    </g>
                </g>
            </g>
        </g>
    </g>
</svg>