<?xml version="1.0" encoding="UTF-8"?>
<svg width="16px" height="13px" viewBox="0 0 16 13" version="1.1" xmlns="http://www.w3.org/2000/svg" xmlns:xlink="http://www.w3.org/1999/xlink">
    <title>Shape Copy</title>
    <g id="Page-1" stroke="none" stroke-width="1" fill="none" fill-rule="evenodd">
        <g id="Screen-/-Hotspot-Open" transform="translate(-273, -514)" fill="#EEEEEE" fill-rule="nonzero">
            <g id="Filters" transform="translate(15, 270)">
                <g id="Post" transform="translate(20, 66.5)">
                    <g id="Rating" transform="translate(0, 140)">
                        <g id="Group" transform="translate(0, 24)">
                            <path d="M242.744942,25.4166667 C242.437998,25.4166667 242.15272,25.2462222 242.040776,24.9602222 C241.792866,24.3291962 241.665952,23.6571436 241.666662,22.9791667 C241.666662,21.7152778 242.099276,20.5539444 242.823664,19.6323889 C242.93272,19.4937222 243.093053,19.4092222 243.256998,19.3456667 C243.598609,19.2135 243.899776,18.9744444 244.132331,18.6783333 C244.692976,17.9630718 245.396742,17.3727053 246.198609,16.945 C246.720776,16.6676667 247.173609,16.2545556 247.392442,15.7063889 C247.546136,15.3223477 247.625068,14.9124869 247.624998,14.4988333 L247.624998,14.0416667 C247.624998,13.7425124 247.86751,13.5 248.166662,13.5 C249.064127,13.5 249.791664,14.2275373 249.791664,15.125 C249.791664,15.957 249.603887,16.7449444 249.269498,17.4491111 C249.077387,17.8521111 249.346776,18.375 249.793109,18.375 L252.050776,18.375 C252.791776,18.375 253.455498,18.8762222 253.53422,19.6136111 C253.56672,19.9183889 253.583341,20.2275 253.583341,20.5416667 C253.586317,22.5179177 252.910978,24.4353323 251.670164,25.9735 C251.389942,26.3216111 250.957331,26.5 250.510998,26.5 L247.610553,26.5 C247.26172,26.5 246.914331,26.4436667 246.582831,26.3338889 L244.333831,25.5827778 C244.002406,25.4725552 243.655382,25.4164657 243.306109,25.4166667 L242.744942,25.4166667 Z M239.016831,19.8028333 C238.618829,20.8144538 238.415214,21.8920697 238.416657,22.9791667 C238.415752,23.8373822 238.542319,24.6909738 238.79222,25.512 C238.979998,26.1258889 239.575831,26.5 240.217887,26.5 L240.87222,26.5 C241.193609,26.5 241.39222,26.1403333 241.249942,25.8514444 C240.809487,24.9581085 240.581118,23.9751825 240.582609,22.9791667 C240.582609,21.7456111 240.926387,20.5922222 241.522942,19.6092778 C241.699887,19.3182222 241.50272,18.9166667 241.161831,18.9166667 L240.402776,18.9166667 C239.801887,18.9166667 239.238553,19.2438333 239.017553,19.8028333 L239.016831,19.8028333 Z" id="Shape-Copy" transform="translate(246, 20) scale(-1, -1) translate(-246, -20)"></path>
                        </g>
                    </g>
                </g>
            </g>
        </g>
    </g>
</svg>