<?xml version="1.0" encoding="UTF-8"?>
<svg width="21px" height="19px" viewBox="0 0 21 19" version="1.1" xmlns="http://www.w3.org/2000/svg"
    xmlns:xlink="http://www.w3.org/1999/xlink">
    <title>New Photo</title>
    <g id="Page-1" stroke="none" stroke-width="1" fill="none" fill-rule="evenodd">
        <g id="Screen-/-Normal" transform="translate(-340, -547)" fill="#EEE" fill-rule="nonzero">
            <g id="Camera" transform="translate(323, 528.9)">
                <path
                    d="M30.1559773,18.5711533 C31.122969,18.6231529 31.9859616,19.1561483 32.4879573,19.9611414 L33.3089503,21.2781302 C33.5489483,21.6611269 33.9539448,21.9211247 34.4189408,21.9881241 C34.8049375,22.0421236 35.1889342,22.1011231 35.570931,22.1651226 C37.0029187,22.4041205 37.9999102,23.6581098 37.9999102,25.0740977 L37.9999102,33.5000257 C37.9999102,35.1568657 36.6567759,36.5 34.9999359,36.5 L20.0000641,36.5 C18.3432241,36.5 17.0000898,35.1568657 17.0000898,33.5000257 L17.0000898,25.0740977 C17.0000898,23.6581098 17.9970813,22.4041205 19.429069,22.1651226 C19.8110658,22.1011231 20.1950625,22.0421236 20.5800592,21.9871241 C21.036753,21.9259997 21.4430635,21.6661074 21.6900497,21.2771302 L22.5120427,19.9621414 C23.0163511,19.1464161 23.8866045,18.6276973 24.8440227,18.5721533 C26.613399,18.4761162 28.386601,18.4761162 30.1559773,18.5711533 Z M27.5,23.0001154 C24.6005299,23.0001154 22.2500449,25.3506004 22.2500449,28.2500706 C22.2500449,31.1495407 24.6005299,33.5000257 27.5,33.5000257 C30.3994701,33.5000257 32.7499551,31.1495407 32.7499551,28.2500706 C32.7499551,25.3506004 30.3994701,23.0001154 27.5,23.0001154 Z M27.5,24.5001026 C29.5710501,24.5001026 31.2499679,26.1790204 31.2499679,28.2500706 C31.2499679,30.3211207 29.5710501,32.0000385 27.5,32.0000385 C25.4289499,32.0000385 23.7500321,30.3211207 23.7500321,28.2500706 C23.7500321,26.1790204 25.4289499,24.5001026 27.5,24.5001026 Z M34.2499423,25.2500962 C33.8357323,25.2500962 33.4999487,25.5858798 33.4999487,26.0000898 C33.4999487,26.4142998 33.8357323,26.7500834 34.2499423,26.7500834 C34.6641523,26.7500834 34.9999359,26.4142998 34.9999359,26.0000898 C34.9999359,25.5858798 34.6641523,25.2500962 34.2499423,25.2500962 Z"
                    id="New-Photo"></path>
            </g>
        </g>
    </g>
</svg>